<svg viewBox="0 0 100 100"
  xmlns="http://www.w3.org/2000/svg">

  <style>@import url('simple.css')</style>

  <g id="grid">
    <path class="fat" d="
      M50,0 50,100
      M0,50 100,50" />

    <path d="
      M0,0     h100
      m-100,10 h100
      m-100,10 h100
      m-100,10 h100
      m-100,10 h100
      m-100,10 h100
      m-100,10 h100
      m-100,10 h100
      m-100,10 h100
      m-100,10 h100
      m-100,10 h100

      M0,0     v100
      m10,-100 v100
      m10,-100 v100
      m10,-100 v100
      m10,-100 v100
      m10,-100 v100
      m10,-100 v100
      m10,-100 v100
      m10,-100 v100
      m10,-100 v100
      m10,-100 v100" />
  </g>
</svg>
